HIERARCHY
ROOT Hips
{
    OFFSET   0.000000   0.000000   0.000000
    CHANNELS 6 Xposition Yposition Zposition Zrotation Xrotation Yrotation
    JOINT Chest
    {
        OFFSET   0.000000   8.007230   0.000000
        CHANNELS 3 Zrotation Xrotation Yrotation
        JOINT Chest2
        {
            OFFSET   0.000000  22.077100   0.000000
            CHANNELS 3 Zrotation Xrotation Yrotation
            JOINT Neck
            {
                OFFSET   0.000000  23.255100   0.000000
                CHANNELS 3 Zrotation Xrotation Yrotation
                JOINT Head
                {
                    OFFSET   0.000000  14.370100   1.956600
                    CHANNELS 3 Zrotation Xrotation Yrotation
                    End Site
                    {
                        OFFSET   0.000000  19.566000   0.000000
                    }
                }
            }
            JOINT LeftCollar
            {
                OFFSET   3.911900  19.017000  -0.467063
                CHANNELS 3 Zrotation Xrotation Yrotation
                JOINT LeftShoulder
                {
                    OFFSET  10.383700   0.000000   0.000000
                    CHANNELS 3 Zrotation Xrotation Yrotation
                    JOINT LeftElbow
                    {
                        OFFSET  26.662100   0.001193   0.000980
                        CHANNELS 3 Zrotation Xrotation Yrotation
                        JOINT LeftWrist
                        {
                            OFFSET  28.869000  -0.000059  -0.000082
                            CHANNELS 3 Zrotation Xrotation Yrotation
                            JOINT LeftFinger0
                            {
                                OFFSET   2.044650  -2.323450   3.252850
                                CHANNELS 3 Zrotation Xrotation Yrotation
                                JOINT LeftFinger01
                                {
                                    OFFSET   3.088130   0.000000   0.000000
                                    CHANNELS 3 Zrotation Xrotation Yrotation
                                    JOINT LeftFinger02
                                    {
                                        OFFSET   2.639460   0.000000   0.000000
                                        CHANNELS 3 Zrotation Xrotation Yrotation
                                        End Site
                                        {
                                            OFFSET   2.582190   0.000000   0.000000
                                        }
                                    }
                                }
                            }
                            JOINT LeftFinger1
                            {
                                OFFSET   8.364480   0.000000   3.252850
                                CHANNELS 3 Zrotation Xrotation Yrotation
                                JOINT LeftFinger11
                                {
                                    OFFSET   4.646930   0.000000   0.000000
                                    CHANNELS 3 Zrotation Xrotation Yrotation
                                    JOINT LeftFinger12
                                    {
                                        OFFSET   2.323470   0.000000   0.000000
                                        CHANNELS 3 Zrotation Xrotation Yrotation
                                        End Site
                                        {
                                            OFFSET   2.273050   0.000000   0.000000
                                        }
                                    }
                                }
                            }
                            JOINT LeftFinger2
                            {
                                OFFSET   8.364490   0.000016   1.078090
                                CHANNELS 3 Zrotation Xrotation Yrotation
                                JOINT LeftFinger21
                                {
                                    OFFSET   5.111610   0.000000   0.000000
                                    CHANNELS 3 Zrotation Xrotation Yrotation
                                    JOINT LeftFinger22
                                    {
                                        OFFSET   2.788150   0.000016   0.000000
                                        CHANNELS 3 Zrotation Xrotation Yrotation
                                        End Site
                                        {
                                            OFFSET   2.727660   0.000000   0.000000
                                        }
                                    }
                                }
                            }
                            JOINT LeftFinger3
                            {
                                OFFSET   7.899780   0.000015  -1.078090
                                CHANNELS 3 Zrotation Xrotation Yrotation
                                JOINT LeftFinger31
                                {
                                    OFFSET   4.646930   0.000000   0.000000
                                    CHANNELS 3 Zrotation Xrotation Yrotation
                                    JOINT LeftFinger32
                                    {
                                        OFFSET   2.323470   0.000000   0.000000
                                        CHANNELS 3 Zrotation Xrotation Yrotation
                                        End Site
                                        {
                                            OFFSET   2.273050   0.000000   0.000000
                                        }
                                    }
                                }
                            }
                            JOINT LeftFinger4
                            {
                                OFFSET   7.435090   0.000000  -3.252850
                                CHANNELS 3 Zrotation Xrotation Yrotation
                                JOINT LeftFinger41
                                {
                                    OFFSET   3.717550   0.000000   0.000000
                                    CHANNELS 3 Zrotation Xrotation Yrotation
                                    JOINT LeftFinger42
                                    {
                                        OFFSET   1.858770   0.000000   0.000000
                                        CHANNELS 3 Zrotation Xrotation Yrotation
                                        End Site
                                        {
                                            OFFSET   1.818440   0.000000   0.000000
                                        }
                                    }
                                }
                            }
                        }
                    }
                }
            }
            JOINT RightCollar
            {
                OFFSET  -3.911910  19.017000  -0.467062
                CHANNELS 3 Zrotation Xrotation Yrotation
                JOINT RightShoulder
                {
                    OFFSET -10.383700   0.000014   0.000000
                    CHANNELS 3 Zrotation Xrotation Yrotation
                    JOINT RightElbow
                    {
                        OFFSET -26.662100   0.001225   0.001091
                        CHANNELS 3 Zrotation Xrotation Yrotation
                        JOINT RightWrist
                        {
                            OFFSET -28.869000  -0.000020  -0.000085
                            CHANNELS 3 Zrotation Xrotation Yrotation
                            JOINT RightFinger0
                            {
                                OFFSET  -2.044650  -2.323490   3.252850
                                CHANNELS 3 Zrotation Xrotation Yrotation
                                JOINT RightFinger01
                                {
                                    OFFSET  -3.088130   0.000000   0.000000
                                    CHANNELS 3 Zrotation Xrotation Yrotation
                                    JOINT RightFinger02
                                    {
                                        OFFSET  -2.639460   0.000000   0.000000
                                        CHANNELS 3 Zrotation Xrotation Yrotation
                                        End Site
                                        {
                                            OFFSET  -2.582190   0.000000   0.000000
                                        }
                                    }
                                }
                            }
                            JOINT RightFinger1
                            {
                                OFFSET  -8.364480   0.000000   3.252850
                                CHANNELS 3 Zrotation Xrotation Yrotation
                                JOINT RightFinger11
                                {
                                    OFFSET  -4.646930   0.000000   0.000000
                                    CHANNELS 3 Zrotation Xrotation Yrotation
                                    JOINT RightFinger12
                                    {
                                        OFFSET  -2.323470   0.000000   0.000000
                                        CHANNELS 3 Zrotation Xrotation Yrotation
                                        End Site
                                        {
                                            OFFSET  -2.273050   0.000000   0.000000
                                        }
                                    }
                                }
                            }
                            JOINT RightFinger2
                            {
                                OFFSET  -8.364480   0.000000   1.078090
                                CHANNELS 3 Zrotation Xrotation Yrotation
                                JOINT RightFinger21
                                {
                                    OFFSET  -5.111620   0.000000   0.000000
                                    CHANNELS 3 Zrotation Xrotation Yrotation
                                    JOINT RightFinger22
                                    {
                                        OFFSET  -2.788160   0.000000   0.000000
                                        CHANNELS 3 Zrotation Xrotation Yrotation
                                        End Site
                                        {
                                            OFFSET  -2.727660   0.000000   0.000000
                                        }
                                    }
                                }
                            }
                            JOINT RightFinger3
                            {
                                OFFSET  -7.899780   0.000000  -1.078090
                                CHANNELS 3 Zrotation Xrotation Yrotation
                                JOINT RightFinger31
                                {
                                    OFFSET  -4.646930   0.000000   0.000000
                                    CHANNELS 3 Zrotation Xrotation Yrotation
                                    JOINT RightFinger32
                                    {
                                        OFFSET  -2.323470   0.000000   0.000000
                                        CHANNELS 3 Zrotation Xrotation Yrotation
                                        End Site
                                        {
                                            OFFSET  -2.273050   0.000000   0.000000
                                        }
                                    }
                                }
                            }
                            JOINT RightFinger4
                            {
                                OFFSET  -7.435090   0.000000  -3.252850
                                CHANNELS 3 Zrotation Xrotation Yrotation
                                JOINT RightFinger41
                                {
                                    OFFSET  -3.717550   0.000000   0.000000
                                    CHANNELS 3 Zrotation Xrotation Yrotation
                                    JOINT RightFinger42
                                    {
                                        OFFSET  -1.858760   0.000000   0.000000
                                        CHANNELS 3 Zrotation Xrotation Yrotation
                                        End Site
                                        {
                                            OFFSET  -1.818440   0.000000   0.000000
                                        }
                                    }
                                }
                            }
                        }
                    }
                }
            }
        }
    }
    JOINT LeftHip
    {
        OFFSET   9.783030   0.000000   0.000000
        CHANNELS 3 Zrotation Xrotation Yrotation
        JOINT LeftKnee
        {
            OFFSET   0.000063 -41.789100   0.000608
            CHANNELS 3 Zrotation Xrotation Yrotation
            JOINT LeftAnkle
            {
                OFFSET   0.000048 -41.133200  -0.000184
                CHANNELS 3 Zrotation Xrotation Yrotation
                JOINT LeftToe
                {
                    OFFSET   0.000000  -6.358960  14.674500
                    CHANNELS 3 Zrotation Xrotation Yrotation
                    End Site
                    {
                        OFFSET   0.000000   0.000000   3.913200
                    }
                }
            }
        }
    }
    JOINT RightHip
    {
        OFFSET  -9.783030   0.000000   0.000000
        CHANNELS 3 Zrotation Xrotation Yrotation
        JOINT RightKnee
        {
            OFFSET   0.000071 -41.789100   0.001239
            CHANNELS 3 Zrotation Xrotation Yrotation
            JOINT RightAnkle
            {
                OFFSET   0.000037 -41.133200  -0.000166
                CHANNELS 3 Zrotation Xrotation Yrotation
                JOINT RightToe
                {
                    OFFSET   0.000000  -6.358960  14.674500
                    CHANNELS 3 Zrotation Xrotation Yrotation
                    End Site
                    {
                        OFFSET   0.000000   0.000000   3.913200
                    }
                }
            }
        }
    }
}
MOTION
Frames: 4
Frame Time:   0.016667
  1.551450  89.496700   1.863820  -0.286621  -8.060480   3.950870   0.847347   5.927750  -1.690360   1.886420  11.826900  -3.497410  -1.871770   3.065330   0.099817  -3.100640   6.196030   7.755250  -8.082980  -0.108112  11.458700 -76.430300  10.086000  -6.606370  -0.548780   4.997830 -18.475300  12.652400  -6.431270  -0.908809  39.917200  31.719900 -52.526400 -31.274400  -0.005309  -0.003173 -10.637200   0.002420  -0.036607 -27.883000  -1.733870   3.286040 -22.856600   0.017073  -0.002334 -15.999600   0.012000   0.001391 -28.613000  -3.869360   7.052020 -40.729500   0.032546   0.007772 -27.125800   0.017741   0.013549 -28.306900  -3.800350   7.019320 -30.410600   0.016077   0.001440 -20.253500   0.009865   0.004312 -31.546700  -4.192970   6.798970 -47.697900   0.011371   0.006030 -31.766800   0.004481   0.004978   9.598020   2.894200   9.568550  70.758900  -5.616230   7.665150   1.780200  -9.591770  19.006400 -29.222600  -6.208220   3.360980 -43.329900  36.904500  67.790200  28.906000  -0.011829  -0.010904   9.452990  -0.007147  -0.006096  15.168900   1.308050   4.676980  12.456200   0.021953  -0.018863   8.719320   0.022596  -0.024012  17.463400   1.040570   3.153360  17.496000   0.036850  -0.036479  11.652300   0.020128  -0.036336  18.004800  -0.352977  -1.238900  18.010400   0.043862  -0.037317  11.994900   0.024546  -0.036026  24.801600  -0.325535  -0.778723  37.202800   0.030596  -0.074732  24.777100   0.002382  -0.053552   2.553210   9.901230  -0.224508   0.133895   1.563480   9.246590  -2.023370  -4.228330   0.764932  -0.000000   0.000000  -0.000000  -0.649094  10.996700  -3.657790   0.311626   1.100760 -15.202200   0.762629  -3.029280   0.453169  -0.000000   0.000000   0.000000
  1.551500  89.496600   1.829890  -0.305982  -8.131310   3.865910   0.856119   5.971590  -1.708400   1.907610  11.914000  -3.535820  -1.905880   3.216040   0.106552  -3.160040   6.499650   7.791820  -8.105070  -0.146650  11.553100 -76.307400  10.331000  -6.811260  -0.441467   5.325600 -18.489200  12.819700  -6.955040  -1.449090  38.629700  28.248800 -49.345700 -30.220700  -0.005316  -0.003034 -10.110300   0.002419  -0.041455 -26.664400  -1.742220   3.485310 -21.865300   0.025963  -0.013077 -15.305700   0.020048  -0.004780 -28.554300  -3.965510   7.233300 -38.635000   0.055431  -0.006216 -25.730900   0.036136   0.009474 -27.978600  -3.860300   7.232500 -29.161500   0.027362  -0.007929 -19.421500   0.018346   0.000196 -31.095700  -4.257610   7.018730 -47.045100   0.026626   0.001034 -31.332000   0.015025   0.005220   9.509300   2.870420   9.657780  70.746000  -5.431230   7.787870   1.845220  -9.307510  19.020700 -31.293500  -6.207830   4.340040 -43.613600  36.889700  67.535000  28.604800  -0.010454  -0.011205   9.302410  -0.007113  -0.006269  13.943100   1.262790   4.954460  11.454300   0.022617  -0.018706   8.017970   0.020002  -0.020628  15.752800   1.047020   3.668960  15.789100   0.036361  -0.033937  10.515500   0.019986  -0.030912  16.122000  -0.190642  -0.730074  16.123100   0.043369  -0.034006  10.738000   0.024444  -0.030798  22.519100  -0.153620  -0.500333  33.776500   0.034348  -0.067216  22.495100   0.002397  -0.049797   2.552680   9.956120  -0.201377   0.137170   1.574880   9.298170  -2.016120  -4.224070   0.766148  -0.000000   0.000000   0.000000  -0.600641  11.053200  -3.653710   0.256121   1.102340 -15.192100   0.781570  -3.005200   0.517566   0.000000   0.000000   0.000000
  1.551550  89.496600   1.773090  -0.337893  -8.248370   3.729100   0.872656   6.051280  -1.748720   1.948180  12.072100  -3.620950  -1.976470   3.470160   0.119160  -3.281620   7.011310   7.892820  -8.185210  -0.264945  11.733300 -76.053400  10.895500  -7.131030  -0.331585   5.652540 -18.528300  12.904100  -8.459810  -2.256290  37.378500  22.452300 -44.932000 -28.488100  -0.005323  -0.002806  -9.244050   0.002413  -0.046302 -24.432400  -1.750150   3.877370 -20.047500   0.034853  -0.028803 -14.033200   0.028097  -0.014288 -28.270100  -4.115130   7.593280 -34.988900   0.078316  -0.026557 -23.302600   0.054531   0.001886 -26.983500  -3.918200   7.658960 -27.020500   0.039317  -0.022288 -17.995600   0.029220  -0.006714 -30.138800  -4.349160   7.440410 -45.648300   0.048315  -0.007631 -30.401700   0.030557   0.005462   9.354300   2.819860   9.850830  70.715600  -5.063940   8.005970   1.959230  -8.868970  19.027100 -34.973300  -6.238590   5.984420 -43.798800  36.666700  66.913800  28.141600  -0.006757  -0.011626   9.070810  -0.007039  -0.006510  11.946300   1.153180   5.231810   9.818670   0.023281  -0.017603   6.873040   0.014711  -0.014149  13.157400   1.053110   4.381920  13.200200   0.032935  -0.026619   8.791320   0.018997  -0.020807  13.286300   0.035160   0.030320  13.286400   0.039918  -0.025737   8.848740   0.023732  -0.020904  19.021400   0.018313  -0.221952  28.531400   0.038101  -0.050478  19.001900   0.002413  -0.039673   2.550380  10.044900  -0.149195   0.141704   1.595310   9.378830  -2.003430  -4.216440   0.767361   0.000000   0.000000   0.000000  -0.523277  11.130600  -3.649890   0.157247   1.113210 -15.153500   0.813973  -2.970950   0.620762  -0.000000   0.000000  -0.000000
  1.551520  89.498500   1.727860  -0.363672  -8.333700   3.630860   0.892127   6.126210  -1.805540   1.995070  12.220200  -3.739570  -2.062960   3.670070   0.131719  -3.428600   7.413090   8.066250  -8.336490  -0.475666  11.943700 -75.740300  11.715900  -7.345030  -0.143996   5.615540 -18.630500  12.405600 -10.985600  -2.740710  36.937500  18.474800 -41.501200 -27.128500  -0.005316  -0.002627  -8.564280   0.002395  -0.037340 -22.138900  -1.748160   4.362400 -18.175500   0.033165  -0.037992 -12.722800   0.027667  -0.020587 -27.660500  -4.233980   8.045100 -31.569300   0.073437  -0.037982 -21.025200   0.053499  -0.008092 -25.126200  -3.861220   8.203560 -25.162000   0.040100  -0.032877 -16.757800   0.032011  -0.013769 -28.920400  -4.393470   7.939590 -43.847600   0.058796  -0.017314 -29.202500   0.039959   0.005401   9.206530   2.756290  10.109600  70.688000  -4.651900   8.200950   2.060590  -8.570670  18.894300 -38.446900  -6.785400   7.429440 -43.498800  35.897300  66.305100  27.794600   0.001156  -0.011805   8.897320  -0.006934  -0.006610  10.194400   0.982318   5.189130   8.374710   0.013340  -0.008843   5.862310   0.007177  -0.005954  11.447200   1.000610   4.655690  11.484000   0.016607  -0.011491   7.648340   0.010879  -0.008520  11.605900   0.126410   0.527861  11.608300   0.022270  -0.011326   7.731130   0.014077  -0.009010  16.758300  -0.068457  -0.422633  25.141600   0.027280  -0.024903  16.744300   0.002412  -0.020844   2.546330  10.104700  -0.069963   0.144970   1.614160   9.428000  -1.993740  -4.209710   0.737578  -0.000000   0.000000   0.000000  -0.455937  11.144600  -3.699990   0.069261   1.177010 -15.072900   0.841432  -2.954380   0.693637   0.000000   0.000000   0.000000
